#!OML:ASF F:\VICON\USERDATA\INSTALL\rory3\rory3.ASF
:FULLY-SPECIFIED
:DEGREES
18
root -6.090700640153681 17.65861488607883 1.6463226200626546 -9.347849901903913 55.139393116912416 -23.940209868335117
lfemur -12.19630605285701 21.569489420588404 7.855766190505374
ltibia 33.46919255478247
lfoot -8.374399616956918 14.474489948653835
ltoes -35.90658889102585
rfemur -31.443491374786895 11.862491768924457 26.223991130544377
rtibia 27.59249661389931
rfoot -6.478782909606477 14.51479065994623
rtoes 14.950104356053739
lowerback -0.033398977414120345 -4.399563778864957 -10.086491247819588
upperback 4.07163966786317 -5.527864074747551 -0.8667213751591025
thorax 5.1840281700937085 -3.099923785176555 4.413125268226833
lowerneck -9.20556050688398 14.89149127636346 4.6060945822407175
upperneck 29.183890418505 24.069290903148104 -8.72447513069799
head 12.985688884913435 10.28419121681087 -0.4601347486617825
lclavicle -5.008194711663627e-15 -1.0203021341082521e-14
lhumerus 83.01269541583206 -70.62968823610137 23.822215660041202
lradius 26.28130833088297
lwrist 9.043025155892405
lhand 5.9065345685838135 35.156094453400634
lfingers 7.125020000000001
lthumb -148.76601544204584 242.5129894989551
rclavicle -5.008194711663627e-15 -1.0203021341082521e-14
rhumerus -13.605688138974614 -4.024175719598286 -94.96958735435649
rradius 72.73619899333308
rwrist -61.670784024317975
rhand -59.8784921428934 -3.0650482317745116
rfingers 7.125020000000001
rthumb -32.036192148400055 -30.26368916961076
19
root -6.053801385236735 17.674713944819764 1.8000720348017862 -9.331399903945794 53.759693573644874 -23.477409928375607
lfemur -10.937507185964977 21.402389519994056 9.239044783510083
ltibia 34.518990935222625
lfoot -7.730210099172149 13.33379037694464
ltoes -35.517389009479785
rfemur -30.427191831756197 11.967691678265581 27.24988970919554
rtibia 27.499296713955694
rfoot -6.296393009024807 15.66599020926441
rtoes 17.220502854747917
lowerback 0.1958976420747791 -5.5536326388296615 -10.517190882289015
upperback 3.83756996727689 -7.080292893346296 -1.1911547586223419
thorax 5.065978411288594 -3.8602225487043547 4.212015673779492
lowerneck -8.33719271856359 16.16289053522507 4.375305259661877
upperneck 27.87209186124944 25.808490197766826 -9.141514520026895
head 12.45799051489159 11.079090525734204 -0.3951843554057284
lclavicle -5.008197044530093e-15 -1.0203021208797218e-14
lhumerus 85.58399469804166 -68.3665888595259 23.690615717761943
lradius 26.08340842730838
lwrist 7.474006126804348
lhand 2.866486911895665 28.854297160638662
lfingers 7.125020000000001
lthumb -151.66701311442125 236.7309898379376
rclavicle -5.008197044530093e-15 -1.0203021208797218e-14
rhumerus -12.674088337311225 -5.736154975026858 -94.06518784238077
rradius 76.96359743018925
rwrist -57.05378573249283
rhand -61.202891436425276 -0.060690085691687656
rfingers 7.125020000000001
rthumb -33.296291449667606 -26.997891244850482
20
root -6.017442119416135 17.674213974051412 1.9703813865040354 -8.474990010264165 51.85529420407268 -22.685910031059464
lfemur -9.661568334501517 21.383589531177996 10.432783569304325
ltibia 35.20458987752569
lfoot -6.3616311236371565 12.430890715950474
ltoes -36.510988707075114
rfemur -30.174491945380268 12.649391090792495 28.067688576162013
rtibia 27.727396469075206
rfoot -6.173863075814221 17.033389673942587
rtoes 17.65980256426006
lowerback -0.38141239989589915 -6.387621814981864 -11.050990429258526
upperback 3.43490048235752 -8.110422109416007 -1.5767640258300215
thorax 5.1509182377427045 -4.3620617325643884 3.9615461788701207
lowerneck -7.6557144542470175 17.133789969257325 4.365745287722658
upperneck 26.621093237124796 27.063089688928486 -9.560303906793262
head 12.000891926797996 11.684289999580502 -0.4279030497590828
lclavicle -5.008197041304415e-15 -1.0203021407225173e-14
lhumerus 85.15839481684989 -66.36598941063849 27.091514226104458
lradius 26.013408461415334
lwrist 3.8589683637965937
lhand 0.13119502029734598 22.105600059863836
lfingers 7.125020000000001
lthumb -154.28401101466477 230.38799020981003
rclavicle -5.008197041304415e-15 -1.0203021407225173e-14
rhumerus -11.663888552381685 -7.77576408796312 -93.25688827854832
rradius 81.26199584079217
rwrist -51.8194876690531
rhand -62.00989100595123 3.0862877676368807
rfingers 7.125020000000001
rthumb -34.06309102447279 -23.683393351036372
21
root -6.065261901726831 17.653320498365332 1.418875360820939 -13.415752627513868 47.440950509662166 -26.232173608056243
lfemur -12.567763830755261 19.29387871113364 4.422233063578432
ltibia 34.049897767944586
lfoot -6.742775251421602 12.735501053484404
ltoes -22.38994444535974
rfemur -29.652494214989012 12.385579371403605 25.76045730989064
rtibia 28.315330206811787
rfoot -6.402459235448357 13.56510713275559
rtoes 19.83716660874997
lowerback -0.14751073515712987 -4.593034616759656 -10.791376761706132
upperback 2.058603582514225 -5.760862712505376 -1.6156261920038442
thorax 4.023112078575376 -3.209995443416445 4.041387115181611
lowerneck -8.37321790567368 14.662075960879479 3.342273104068064
upperneck 25.926489441413416 23.984699360517094 -9.77963644914369
head 11.869974057277965 10.003284991351434 -1.257563236409757
lclavicle -5.266793929365128e-15 -1.0392187631075494e-14
lhumerus 87.19782077821232 -58.61609317901916 30.605871907091796
lradius 28.371158869836528
lwrist 6.623443371584866
lhand -3.27000885681972 10.256506487579816
lfingers 7.125020000000001
lthumb -157.56843069154917 104.66785927726121
rclavicle -5.2667939293651285e-15 -1.0392187631075494e-14
rhumerus 4.477304138242481 -6.3357596841192 -86.72380794658547
rradius 84.17852160336719
rwrist -40.9274841181144
rhand -61.436753955008854 11.1057975782342
rfingers 7.125020000000001
rthumb -33.54093813922176 -16.175733537312063
22
root -6.059015079589172 17.648605085675165 1.6030191390846211 -12.034560196482346 46.61857440303412 -24.676991980014137
lfemur -11.136253404055648 19.395318219586247 4.915496495274089
ltibia 33.80790785718596
lfoot -7.214858584639558 13.960313297560317
ltoes -23.108820535410597
rfemur -29.850503304372253 12.837174869313582 25.989125453696033
rtibia 28.495997543751464
rfoot -7.453695773697777 15.31867315299513
rtoes 22.1539545954792
lowerback -0.0308353200944107 -5.367990564985751 -11.495750130599177
upperback 1.8272737386934308 -6.718953220243452 -1.8818644385249055
thorax 3.7204302027101974 -3.6176670020011215 4.063744458176379
lowerneck -7.748480738418593 15.49222623808448 3.280093377514942
upperneck 25.125394994364996 25.029921634993894 -10.230215965549464
head 11.477446475142669 10.561172545972891 -1.2428704419881436
lclavicle -5.627101947522582e-15 -1.068547458748227e-14
lhumerus 88.29087497964422 -57.67248751672274 31.458463883833208
lradius 28.432324833836955
lwrist 5.481105449692041
lhand -5.080953663644156 7.245161149740541
lfingers 7.125020000000001
lthumb -159.3069623462902 86.47332303236054
rclavicle -5.627101947522582e-15 -1.068547458748227e-14
rhumerus 4.650626069013114 -7.382939186592983 -86.99577134745985
rradius 86.28887865477843
rwrist -36.57035833677652
rhand -61.99918906415106 14.257232074670771
rfingers 7.125020000000001
rthumb -34.06894371387655 -12.953630123445683
